<svg width="100" height="44" viewBox="0 0 100 44" fill="none" xmlns="http://www.w3.org/2000/svg">
<path d="M13.824 14.144C19.136 14.144 21.792 16.704 21.792 21.824C21.792 22.336 21.776 22.736 21.744 23.024L20.688 36.896C20.656 37.312 20.512 37.648 20.256 37.904C20 38.128 19.664 38.24 19.248 38.24C18.8 38.24 18.432 38.096 18.144 37.808C17.888 37.52 17.776 37.152 17.808 36.704L18 34.016C17.296 35.392 16.304 36.464 15.024 37.232C13.744 37.968 12.272 38.336 10.608 38.336C8.272 38.336 6.368 37.712 4.896 36.464C3.424 35.216 2.688 33.616 2.688 31.664C2.688 29.904 3.152 28.512 4.08 27.488C5.04 26.464 6.56 25.728 8.64 25.28C10.72 24.8 13.52 24.56 17.04 24.56H18.72L18.864 22.928C18.896 22.672 18.912 22.32 18.912 21.872C18.912 20.08 18.48 18.768 17.616 17.936C16.784 17.104 15.488 16.688 13.728 16.688C11.232 16.688 8.608 17.552 5.856 19.28C5.632 19.408 5.424 19.472 5.232 19.472C4.912 19.472 4.64 19.344 4.416 19.088C4.224 18.832 4.128 18.528 4.128 18.176C4.128 17.632 4.368 17.2 4.848 16.88C6 16.048 7.392 15.392 9.024 14.912C10.656 14.4 12.256 14.144 13.824 14.144ZM11.088 35.792C13.072 35.792 14.752 35.12 16.128 33.776C17.504 32.4 18.272 30.624 18.432 28.448L18.576 26.72H17.184C14.24 26.72 11.952 26.864 10.32 27.152C8.688 27.44 7.52 27.936 6.816 28.64C6.112 29.312 5.76 30.256 5.76 31.472C5.76 32.784 6.24 33.84 7.2 34.64C8.16 35.408 9.456 35.792 11.088 35.792ZM61.4576 15.296C61.7456 14.752 62.1616 14.48 62.7056 14.48C63.1216 14.48 63.4736 14.608 63.7616 14.864C64.0816 15.12 64.2416 15.44 64.2416 15.824C64.2416 16.016 64.1936 16.208 64.0976 16.4L54.9296 36.944C54.7376 37.328 54.4656 37.632 54.1136 37.856C53.7936 38.048 53.4256 38.144 53.0096 38.144C52.5936 38.144 52.1936 38.016 51.8096 37.76C51.4576 37.504 51.2176 37.152 51.0896 36.704L45.9056 18.56L37.8416 36.944C37.6816 37.328 37.4256 37.632 37.0736 37.856C36.7536 38.048 36.3856 38.144 35.9696 38.144C35.5216 38.144 35.1056 38.016 34.7216 37.76C34.3696 37.504 34.1296 37.152 34.0016 36.704L28.0976 16.304C28.0656 16.208 28.0496 16.048 28.0496 15.824C28.0496 15.408 28.1936 15.072 28.4816 14.816C28.8016 14.56 29.1536 14.432 29.5376 14.432C29.8576 14.432 30.1296 14.528 30.3536 14.72C30.6096 14.88 30.7856 15.136 30.8816 15.488L36.1136 34.544L44.2736 15.872C44.4656 15.392 44.7376 15.04 45.0896 14.816C45.4416 14.56 45.8096 14.432 46.1936 14.432C46.5776 14.432 46.9296 14.56 47.2496 14.816C47.6016 15.072 47.8416 15.424 47.9696 15.872L53.1536 34.448L61.4576 15.296ZM70.5323 26.72V27.2C70.5323 29.888 71.2043 31.984 72.5483 33.488C73.8923 34.992 75.8283 35.744 78.3563 35.744C79.6683 35.744 80.9323 35.552 82.1483 35.168C83.3963 34.752 84.4843 34.192 85.4123 33.488C85.7323 33.264 86.0363 33.152 86.3243 33.152C86.6443 33.152 86.9003 33.264 87.0923 33.488C87.3163 33.712 87.4283 34 87.4283 34.352C87.4283 34.8 87.2363 35.2 86.8523 35.552C85.9883 36.352 84.7403 37.024 83.1083 37.568C81.5083 38.08 79.8923 38.336 78.2603 38.336C74.9323 38.336 72.3083 37.328 70.3883 35.312C68.4683 33.264 67.5083 30.528 67.5083 27.104C67.5083 24.544 67.9723 22.288 68.9003 20.336C69.8283 18.384 71.1563 16.864 72.8843 15.776C74.6123 14.688 76.6283 14.144 78.9323 14.144C82.0043 14.144 84.3403 15.056 85.9403 16.88C87.5403 18.672 88.3403 21.344 88.3403 24.896C88.3403 25.504 88.1803 25.968 87.8603 26.288C87.5723 26.576 87.1883 26.72 86.7083 26.72H70.5323ZM79.0763 16.544C76.7083 16.544 74.8043 17.248 73.3643 18.656C71.9563 20.032 71.0763 22 70.7243 24.56H85.6523C85.7483 21.936 85.2043 19.952 84.0203 18.608C82.8363 17.232 81.1883 16.544 79.0763 16.544Z" fill="black"/>
<rect x="94" width="6" height="29" fill="#2CB978"/>
</svg>
